<?xml version="1.0" encoding="utf-8"?>
<!-- Generator: Adobe Illustrator 21.1.0, SVG Export Plug-In . SVG Version: 6.00 Build 0)  -->
<svg version="1.1" id="Layer_1" xmlns="http://www.w3.org/2000/svg" xmlns:xlink="http://www.w3.org/1999/xlink" x="0px" y="0px"
	 viewBox="0 0 227.3 227.3" style="enable-background:new 0 0 227.3 227.3;" xml:space="preserve">
<style type="text/css">
	.st0{clip-path:url(#SVGID_2_);fill:url(#SVGID_3_);}
	.st1{clip-path:url(#SVGID_2_);fill:url(#SVGID_4_);}
	.st2{clip-path:url(#SVGID_2_);fill:url(#SVGID_5_);}
	.st3{clip-path:url(#SVGID_2_);fill:url(#SVGID_6_);}
	.st4{filter:url(#Adobe_OpacityMaskFilter);}
	.st5{clip-path:url(#SVGID_2_);fill:url(#SVGID_8_);}
	.st6{clip-path:url(#SVGID_2_);mask:url(#SVGID_7_);fill:url(#SVGID_9_);}
	.st7{filter:url(#Adobe_OpacityMaskFilter_1_);}
	.st8{clip-path:url(#SVGID_2_);fill:url(#SVGID_11_);}
	.st9{clip-path:url(#SVGID_2_);mask:url(#SVGID_10_);fill:url(#SVGID_12_);}
	.st10{filter:url(#Adobe_OpacityMaskFilter_2_);}
	.st11{clip-path:url(#SVGID_2_);fill:url(#SVGID_14_);}
	.st12{clip-path:url(#SVGID_2_);mask:url(#SVGID_13_);fill:url(#SVGID_15_);}
	.st13{clip-path:url(#SVGID_2_);fill:url(#SVGID_16_);}
	.st14{clip-path:url(#SVGID_2_);fill:url(#SVGID_17_);}
	.st15{clip-path:url(#SVGID_2_);fill:url(#SVGID_18_);}
	.st16{clip-path:url(#SVGID_2_);fill:url(#SVGID_19_);}
	.st17{clip-path:url(#SVGID_2_);fill:url(#SVGID_20_);}
	.st18{clip-path:url(#SVGID_2_);fill:url(#SVGID_21_);}
	.st19{clip-path:url(#SVGID_2_);fill:url(#SVGID_22_);}
	.st20{clip-path:url(#SVGID_2_);}
	.st21{fill:url(#SVGID_23_);}
	.st22{fill:url(#SVGID_24_);}
	.st23{fill:url(#SVGID_25_);}
	.st24{fill:url(#SVGID_26_);}
	.st25{fill:url(#SVGID_27_);}
	.st26{fill:url(#SVGID_28_);}
	.st27{fill:url(#SVGID_29_);}
	.st28{fill:url(#SVGID_30_);}
	.st29{fill:url(#SVGID_31_);}
	.st30{fill:url(#SVGID_32_);}
	.st31{fill:url(#SVGID_33_);}
	.st32{fill:url(#SVGID_34_);}
	.st33{fill:url(#SVGID_35_);}
	.st34{fill:url(#SVGID_36_);}
	.st35{fill:url(#SVGID_37_);}
	.st36{fill:url(#SVGID_38_);}
	.st37{fill:url(#SVGID_39_);}
	.st38{fill:url(#SVGID_40_);}
	.st39{fill:url(#SVGID_41_);}
	.st40{fill:url(#SVGID_42_);}
	.st41{fill:url(#SVGID_43_);}
	.st42{fill:url(#SVGID_44_);}
	.st43{fill:url(#SVGID_45_);}
	.st44{fill:url(#SVGID_46_);}
	.st45{fill:url(#SVGID_47_);}
	.st46{fill:url(#SVGID_48_);}
	.st47{fill:url(#SVGID_49_);}
	.st48{fill:url(#SVGID_50_);}
	.st49{fill:url(#SVGID_51_);}
	.st50{clip-path:url(#SVGID_2_);fill:#272624;}
	.st51{clip-path:url(#SVGID_2_);fill:#FFFFFF;}
	.st52{clip-path:url(#SVGID_2_);fill:#E2E2E2;}
	.st53{clip-path:url(#SVGID_2_);fill:#C9C8C8;}
</style>
<g>
	<defs>
		<rect id="SVGID_1_" x="0.3" width="227.1" height="227.1"/>
	</defs>
	<clipPath id="SVGID_2_">
		<use xlink:href="#SVGID_1_"  style="overflow:visible;"/>
	</clipPath>
	<radialGradient id="SVGID_3_" cx="177.7389" cy="73.1018" r="227.2949" gradientUnits="userSpaceOnUse">
		<stop  offset="0" style="stop-color:#FFFFFF"/>
		<stop  offset="0.2302" style="stop-color:#F8F9FA"/>
		<stop  offset="0.4204" style="stop-color:#EAEAEC"/>
		<stop  offset="0.5962" style="stop-color:#D4D6DA"/>
		<stop  offset="0.5969" style="stop-color:#D4D6DA"/>
		<stop  offset="0.6921" style="stop-color:#C8C9CF"/>
		<stop  offset="0.8586" style="stop-color:#A9ADB4"/>
		<stop  offset="0.9949" style="stop-color:#90969E"/>
	</radialGradient>
	<rect x="0.3" class="st0" width="227.1" height="227.1"/>
	<radialGradient id="SVGID_4_" cx="162.1387" cy="125.6217" r="227.295" gradientUnits="userSpaceOnUse">
		<stop  offset="0" style="stop-color:#FFFFFF"/>
		<stop  offset="0.3092" style="stop-color:#F9FAFD"/>
		<stop  offset="0.5652" style="stop-color:#EDEEF8"/>
		<stop  offset="0.8013" style="stop-color:#DADDF1"/>
		<stop  offset="0.9949" style="stop-color:#C6CBE8"/>
	</radialGradient>
	<rect x="0.3" class="st1" width="227.1" height="227.1"/>
	<linearGradient id="SVGID_5_" gradientUnits="userSpaceOnUse" x1="66.5185" y1="170.661" x2="109.0289" y2="120.6266">
		<stop  offset="0" style="stop-color:#FFFFFF"/>
		<stop  offset="0.1577" style="stop-color:#F4F4F4"/>
		<stop  offset="0.4113" style="stop-color:#DBDBDB"/>
		<stop  offset="0.7277" style="stop-color:#B5B5B5"/>
		<stop  offset="0.7908" style="stop-color:#ADACAC"/>
		<stop  offset="0.9847" style="stop-color:#81807F"/>
	</linearGradient>
	<polygon class="st2" points="42.8,114.8 61.8,162.9 152.1,153.7 100.9,123.4 	"/>
	<linearGradient id="SVGID_6_" gradientUnits="userSpaceOnUse" x1="165.8468" y1="213.0725" x2="212.1492" y2="158.5749">
		<stop  offset="0" style="stop-color:#FFFFFF"/>
		<stop  offset="0.1577" style="stop-color:#F4F4F4"/>
		<stop  offset="0.4113" style="stop-color:#DBDBDB"/>
		<stop  offset="0.7277" style="stop-color:#B5B5B5"/>
		<stop  offset="0.7908" style="stop-color:#ADACAC"/>
		<stop  offset="0.9847" style="stop-color:#81807F"/>
	</linearGradient>
	<polygon class="st3" points="151.2,153.8 157.8,202.1 251.8,188.5 209.3,162.3 	"/>
	<defs>
		<filter id="Adobe_OpacityMaskFilter" filterUnits="userSpaceOnUse" x="158.1" y="179.3" width="84.8" height="21.8">
			<feColorMatrix  type="matrix" values="1 0 0 0 0  0 1 0 0 0  0 0 1 0 0  0 0 0 1 0"/>
		</filter>
	</defs>
	<mask maskUnits="userSpaceOnUse" x="158.1" y="179.3" width="84.8" height="21.8" id="SVGID_7_">
		<g class="st4">
			
				<linearGradient id="SVGID_8_" gradientUnits="userSpaceOnUse" x1="-2716.5906" y1="6311.5342" x2="-2632.6682" y2="6311.5342" gradientTransform="matrix(-0.9883 0.1523 -0.1523 -0.9883 -1481.6438 6835.1963)">
				<stop  offset="0" style="stop-color:#000000"/>
				<stop  offset="5.861915e-02" style="stop-color:#4A4641"/>
				<stop  offset="0.1242" style="stop-color:#6E6C6A"/>
				<stop  offset="0.1908" style="stop-color:#969594"/>
				<stop  offset="0.257" style="stop-color:#BAB9B9"/>
				<stop  offset="0.3228" style="stop-color:#D7D6D6"/>
				<stop  offset="0.388" style="stop-color:#ECECEC"/>
				<stop  offset="0.4525" style="stop-color:#F9F9F9"/>
				<stop  offset="0.5153" style="stop-color:#FFFFFF"/>
				<stop  offset="0.5811" style="stop-color:#FAF9FA"/>
				<stop  offset="0.6427" style="stop-color:#EDEDED"/>
				<stop  offset="0.7025" style="stop-color:#DAD9DA"/>
				<stop  offset="0.7613" style="stop-color:#BFBFBF"/>
				<stop  offset="0.8193" style="stop-color:#9E9D9C"/>
				<stop  offset="0.8768" style="stop-color:#777573"/>
				<stop  offset="0.9338" style="stop-color:#54514C"/>
				<stop  offset="0.9892" style="stop-color:#171716"/>
				<stop  offset="1" style="stop-color:#000000"/>
			</linearGradient>
			<polygon class="st5" points="158.1,192.1 241.5,179.3 242.8,188.2 159.4,201.1 			"/>
		</g>
	</mask>
	
		<linearGradient id="SVGID_9_" gradientUnits="userSpaceOnUse" x1="-2674.6294" y1="6309.7075" x2="-2674.6294" y2="6317.8325" gradientTransform="matrix(-0.9883 0.1523 -0.1523 -0.9883 -1481.6438 6835.1963)">
		<stop  offset="0" style="stop-color:#FFFFFF"/>
		<stop  offset="0.1283" style="stop-color:#F4F4F4"/>
		<stop  offset="0.3347" style="stop-color:#DBDBDB"/>
		<stop  offset="0.5936" style="stop-color:#B5B4B4"/>
		<stop  offset="0.892" style="stop-color:#838180"/>
		<stop  offset="0.9898" style="stop-color:#72706E"/>
	</linearGradient>
	<polygon class="st6" points="158.1,192.1 241.5,179.3 242.8,188.2 159.4,201.1 	"/>
	<defs>
		<filter id="Adobe_OpacityMaskFilter_1_" filterUnits="userSpaceOnUse" x="132.8" y="73.3" width="110.9" height="37.7">
			<feColorMatrix  type="matrix" values="1 0 0 0 0  0 1 0 0 0  0 0 1 0 0  0 0 0 1 0"/>
		</filter>
	</defs>
	<mask maskUnits="userSpaceOnUse" x="132.8" y="73.3" width="110.9" height="37.7" id="SVGID_10_">
		<g class="st7">
			
				<linearGradient id="SVGID_11_" gradientUnits="userSpaceOnUse" x1="-4173.043" y1="-1457.5887" x2="-4062.4385" y2="-1457.5887" gradientTransform="matrix(0.9721 0.2346 -0.2346 0.9721 3849.1609 2475.073)">
				<stop  offset="0" style="stop-color:#000000"/>
				<stop  offset="5.861915e-02" style="stop-color:#4A4641"/>
				<stop  offset="0.1242" style="stop-color:#6E6C6A"/>
				<stop  offset="0.1908" style="stop-color:#969594"/>
				<stop  offset="0.257" style="stop-color:#BAB9B9"/>
				<stop  offset="0.3228" style="stop-color:#D7D6D6"/>
				<stop  offset="0.388" style="stop-color:#ECECEC"/>
				<stop  offset="0.4525" style="stop-color:#F9F9F9"/>
				<stop  offset="0.5153" style="stop-color:#FFFFFF"/>
				<stop  offset="0.5811" style="stop-color:#FAF9FA"/>
				<stop  offset="0.6427" style="stop-color:#EDEDED"/>
				<stop  offset="0.7025" style="stop-color:#DAD9DA"/>
				<stop  offset="0.7613" style="stop-color:#BFBFBF"/>
				<stop  offset="0.8193" style="stop-color:#9E9D9C"/>
				<stop  offset="0.8768" style="stop-color:#777573"/>
				<stop  offset="0.9338" style="stop-color:#54514C"/>
				<stop  offset="0.9892" style="stop-color:#171716"/>
				<stop  offset="1" style="stop-color:#000000"/>
			</linearGradient>
			<polygon class="st8" points="240.9,111 132.8,84.9 135.6,73.3 243.7,99.4 			"/>
		</g>
	</mask>
	
		<linearGradient id="SVGID_12_" gradientUnits="userSpaceOnUse" x1="-4117.7407" y1="-1459.9962" x2="-4117.7407" y2="-1449.2871" gradientTransform="matrix(0.9721 0.2346 -0.2346 0.9721 3849.1609 2475.073)">
		<stop  offset="0" style="stop-color:#FFFFFF"/>
		<stop  offset="0.2126" style="stop-color:#F4F4F4"/>
		<stop  offset="0.5545" style="stop-color:#DBDBDB"/>
		<stop  offset="0.981" style="stop-color:#B5B5B5"/>
		<stop  offset="0.9898" style="stop-color:#B4B4B4"/>
	</linearGradient>
	<polygon class="st9" points="240.9,111 132.8,84.9 135.6,73.3 243.7,99.4 	"/>
	<defs>
		<filter id="Adobe_OpacityMaskFilter_2_" filterUnits="userSpaceOnUse" x="136.4" y="110.9" width="26.5" height="84.4">
			<feColorMatrix  type="matrix" values="1 0 0 0 0  0 1 0 0 0  0 0 1 0 0  0 0 0 1 0"/>
		</filter>
	</defs>
	<mask maskUnits="userSpaceOnUse" x="136.4" y="110.9" width="26.5" height="84.4" id="SVGID_13_">
		<g class="st10">
			
				<linearGradient id="SVGID_14_" gradientUnits="userSpaceOnUse" x1="1805.8063" y1="2485.0105" x2="1889.724" y2="2485.0105" gradientTransform="matrix(-0.2092 -0.9779 0.9779 -0.2092 -1893.8899 2479.8792)">
				<stop  offset="0" style="stop-color:#000000"/>
				<stop  offset="5.861915e-02" style="stop-color:#4A4641"/>
				<stop  offset="0.1242" style="stop-color:#6E6C6A"/>
				<stop  offset="0.1908" style="stop-color:#969594"/>
				<stop  offset="0.257" style="stop-color:#BAB9B9"/>
				<stop  offset="0.3228" style="stop-color:#D7D6D6"/>
				<stop  offset="0.388" style="stop-color:#ECECEC"/>
				<stop  offset="0.4525" style="stop-color:#F9F9F9"/>
				<stop  offset="0.5153" style="stop-color:#FFFFFF"/>
				<stop  offset="0.5811" style="stop-color:#FAF9FA"/>
				<stop  offset="0.6427" style="stop-color:#EDEDED"/>
				<stop  offset="0.7025" style="stop-color:#DAD9DA"/>
				<stop  offset="0.7613" style="stop-color:#BFBFBF"/>
				<stop  offset="0.8193" style="stop-color:#9E9D9C"/>
				<stop  offset="0.8768" style="stop-color:#777573"/>
				<stop  offset="0.9338" style="stop-color:#54514C"/>
				<stop  offset="0.9892" style="stop-color:#171716"/>
				<stop  offset="1" style="stop-color:#000000"/>
			</linearGradient>
			<polygon class="st11" points="145.3,110.9 162.9,193.4 154,195.3 136.4,112.8 			"/>
		</g>
	</mask>
	
		<linearGradient id="SVGID_15_" gradientUnits="userSpaceOnUse" x1="1847.7649" y1="2483.1841" x2="1847.7649" y2="2491.3088" gradientTransform="matrix(-0.2092 -0.9779 0.9779 -0.2092 -1893.8899 2479.8792)">
		<stop  offset="0" style="stop-color:#FFFFFF"/>
		<stop  offset="0.1138" style="stop-color:#F4F4F4"/>
		<stop  offset="0.297" style="stop-color:#DBDBDB"/>
		<stop  offset="0.5267" style="stop-color:#B5B4B4"/>
		<stop  offset="0.7913" style="stop-color:#828180"/>
		<stop  offset="0.9898" style="stop-color:#5F5D59"/>
	</linearGradient>
	<polygon class="st12" points="145.3,110.9 162.9,193.4 154,195.3 136.4,112.8 	"/>
	
		<linearGradient id="SVGID_16_" gradientUnits="userSpaceOnUse" x1="-4348.9551" y1="2798.8298" x2="-4365.5322" y2="2798.8298" gradientTransform="matrix(-0.33 0.944 -0.944 -0.33 1307.3766 5182.7427)">
		<stop  offset="0" style="stop-color:#FFFFFF"/>
		<stop  offset="0.1577" style="stop-color:#F4F4F4"/>
		<stop  offset="0.4113" style="stop-color:#DBDBDB"/>
		<stop  offset="0.7277" style="stop-color:#B5B5B5"/>
		<stop  offset="0.7908" style="stop-color:#ADACAC"/>
		<stop  offset="0.9847" style="stop-color:#81807F"/>
	</linearGradient>
	<polygon class="st13" points="33.9,132.9 42.8,114.8 171.8,159.8 165.8,177.9 	"/>
	
		<linearGradient id="SVGID_17_" gradientUnits="userSpaceOnUse" x1="-4566.9873" y1="-774.8209" x2="-4583.5586" y2="-774.8209" gradientTransform="matrix(0.5231 0.8523 -0.8523 0.5231 1915.0243 4358.0674)">
		<stop  offset="0" style="stop-color:#FFFFFF"/>
		<stop  offset="0.1577" style="stop-color:#F4F4F4"/>
		<stop  offset="0.4113" style="stop-color:#DBDBDB"/>
		<stop  offset="0.7277" style="stop-color:#B5B5B5"/>
		<stop  offset="0.7908" style="stop-color:#ADACAC"/>
		<stop  offset="0.9847" style="stop-color:#81807F"/>
	</linearGradient>
	<polygon class="st14" points="128.2,98.8 119.8,80.4 236.2,8.8 246.5,24.9 	"/>
	
		<linearGradient id="SVGID_18_" gradientUnits="userSpaceOnUse" x1="2278.3708" y1="3398.4087" x2="2269.0879" y2="3398.4087" gradientTransform="matrix(-0.7929 -0.6093 0.6093 -0.7929 -135.321 4095.7705)">
		<stop  offset="0" style="stop-color:#FFFFFF"/>
		<stop  offset="0.1577" style="stop-color:#F4F4F4"/>
		<stop  offset="0.4113" style="stop-color:#DBDBDB"/>
		<stop  offset="0.7277" style="stop-color:#B5B5B5"/>
		<stop  offset="0.7908" style="stop-color:#ADACAC"/>
		<stop  offset="0.9847" style="stop-color:#81807F"/>
	</linearGradient>
	<polygon class="st15" points="151.4,-18.4 158.9,-9.7 113,48.9 104.3,42.8 	"/>
	
		<linearGradient id="SVGID_19_" gradientUnits="userSpaceOnUse" x1="-2498.2231" y1="-2418.4109" x2="-2514.9756" y2="-2418.4109" gradientTransform="matrix(0.8735 0.4869 -0.4869 0.8735 1027.1176 3494.7678)">
		<stop  offset="0" style="stop-color:#FFFFFF"/>
		<stop  offset="0.1577" style="stop-color:#F4F4F4"/>
		<stop  offset="0.4113" style="stop-color:#DBDBDB"/>
		<stop  offset="0.7277" style="stop-color:#B5B5B5"/>
		<stop  offset="0.7908" style="stop-color:#ADACAC"/>
		<stop  offset="0.9847" style="stop-color:#81807F"/>
	</linearGradient>
	<polygon class="st16" points="-3.4,216.4 -19.7,204.5 33.1,112.1 52.1,117.5 	"/>
	
		<linearGradient id="SVGID_20_" gradientUnits="userSpaceOnUse" x1="-4217.4971" y1="3418.9841" x2="-4249.0757" y2="3418.9841" gradientTransform="matrix(-0.4591 0.8884 -0.8884 -0.4591 1100.348 5347.4277)">
		<stop  offset="0" style="stop-color:#FFFFFF"/>
		<stop  offset="0.1577" style="stop-color:#F4F4F4"/>
		<stop  offset="0.4113" style="stop-color:#DBDBDB"/>
		<stop  offset="0.7277" style="stop-color:#B5B5B5"/>
		<stop  offset="0.7908" style="stop-color:#ADACAC"/>
		<stop  offset="0.9847" style="stop-color:#6B6966"/>
	</linearGradient>
	<polygon class="st17" points="-38.9,1.9 -27.6,-14.8 54,27.8 -4,33.7 	"/>
	<linearGradient id="SVGID_21_" gradientUnits="userSpaceOnUse" x1="23.4875" y1="72.1817" x2="63.1961" y2="70.7802">
		<stop  offset="0" style="stop-color:#F5F5F5"/>
		<stop  offset="0.1473" style="stop-color:#ECECEC"/>
		<stop  offset="0.3843" style="stop-color:#D4D3D3"/>
		<stop  offset="0.6814" style="stop-color:#ADADAD"/>
		<stop  offset="0.9847" style="stop-color:#81807F"/>
	</linearGradient>
	<polygon class="st18" points="42.8,114.8 42.8,114.8 54,27.8 24.2,83.5 	"/>
	<linearGradient id="SVGID_22_" gradientUnits="userSpaceOnUse" x1="124.98" y1="12.9115" x2="150.4604" y2="13.9515">
		<stop  offset="0" style="stop-color:#F5F5F5"/>
		<stop  offset="0.1473" style="stop-color:#ECECEC"/>
		<stop  offset="0.3843" style="stop-color:#D4D3D3"/>
		<stop  offset="0.6814" style="stop-color:#ADADAD"/>
		<stop  offset="0.9847" style="stop-color:#81807F"/>
	</linearGradient>
	<polygon class="st19" points="125.1,29 125.1,29 146.3,-1.9 119.6,-3.4 	"/>
	<g class="st20">
		
			<linearGradient id="SVGID_23_" gradientUnits="userSpaceOnUse" x1="-317.4781" y1="-578.8591" x2="-275.6734" y2="-572.0118" gradientTransform="matrix(0.5651 -0.825 0.825 0.5651 639.8826 177.8356)">
			<stop  offset="0" style="stop-color:#333034"/>
			<stop  offset="0.2499" style="stop-color:#312E32"/>
			<stop  offset="0.5334" style="stop-color:#2D2A2E"/>
			<stop  offset="0.9949" style="stop-color:#100F0F"/>
		</linearGradient>
		<polygon class="st21" points="-27.4,58.6 -18.8,99.3 42.8,114.8 		"/>
		
			<linearGradient id="SVGID_24_" gradientUnits="userSpaceOnUse" x1="-331.8206" y1="-65.5213" x2="-340.9524" y2="-27.2397" gradientTransform="matrix(0.9184 -0.3957 0.3957 0.9184 323.8724 11.636)">
			<stop  offset="0" style="stop-color:#242220"/>
			<stop  offset="0.2875" style="stop-color:#1B1A19"/>
			<stop  offset="0.3242" style="stop-color:#1A1917"/>
			<stop  offset="0.9949" style="stop-color:#000000"/>
		</linearGradient>
		<polygon class="st22" points="-18.8,99.3 -42.7,128.9 42.8,114.8 		"/>
		<linearGradient id="SVGID_25_" gradientUnits="userSpaceOnUse" x1="-18.6001" y1="96.0882" x2="-43.6814" y2="92.5768">
			<stop  offset="0" style="stop-color:#242220"/>
			<stop  offset="0.2875" style="stop-color:#1B1A19"/>
			<stop  offset="0.3242" style="stop-color:#1A1917"/>
			<stop  offset="0.9949" style="stop-color:#000000"/>
		</linearGradient>
		<polygon class="st23" points="-27.4,58.6 -18.8,99.3 -42.7,128.9 		"/>
	</g>
	<g class="st20">
		<linearGradient id="SVGID_26_" gradientUnits="userSpaceOnUse" x1="111.5618" y1="95.3131" x2="95.0084" y2="140.9603">
			<stop  offset="0" style="stop-color:#242220"/>
			<stop  offset="0.2875" style="stop-color:#1B1A19"/>
			<stop  offset="0.3242" style="stop-color:#1A1917"/>
			<stop  offset="0.9949" style="stop-color:#000000"/>
		</linearGradient>
		<polygon class="st24" points="152.1,153.7 42.8,114.8 101.7,91.4 		"/>
		<linearGradient id="SVGID_27_" gradientUnits="userSpaceOnUse" x1="84.9812" y1="98.5898" x2="140.0261" y2="91.0346">
			<stop  offset="0" style="stop-color:#333034"/>
			<stop  offset="0.2499" style="stop-color:#312E32"/>
			<stop  offset="0.5334" style="stop-color:#2D2A2E"/>
			<stop  offset="0.9949" style="stop-color:#100F0F"/>
		</linearGradient>
		<polygon class="st25" points="152.1,153.7 101.7,91.4 125,28.7 136.3,80.9 		"/>
		<linearGradient id="SVGID_28_" gradientUnits="userSpaceOnUse" x1="100.2053" y1="90.4647" x2="79.6387" y2="66.8884">
			<stop  offset="0" style="stop-color:#222120"/>
			<stop  offset="0.1734" style="stop-color:#1D1D1C"/>
			<stop  offset="0.3242" style="stop-color:#171817"/>
			<stop  offset="0.9949" style="stop-color:#000000"/>
		</linearGradient>
		<polygon class="st26" points="101.7,91.4 42.8,114.8 125,28.7 		"/>
	</g>
	<g class="st20">
		<linearGradient id="SVGID_29_" gradientUnits="userSpaceOnUse" x1="202.3822" y1="139.8068" x2="242.0095" y2="146.3277">
			<stop  offset="0" style="stop-color:#222120"/>
			<stop  offset="0.1734" style="stop-color:#1D1D1C"/>
			<stop  offset="0.3242" style="stop-color:#171817"/>
			<stop  offset="0.9949" style="stop-color:#000000"/>
		</linearGradient>
		<polygon class="st27" points="245.8,108 205.1,147.2 228.5,183 		"/>
		<linearGradient id="SVGID_30_" gradientUnits="userSpaceOnUse" x1="206.4157" y1="147.8206" x2="198.3269" y2="129.4371">
			<stop  offset="0" style="stop-color:#333034"/>
			<stop  offset="0.2499" style="stop-color:#312E32"/>
			<stop  offset="0.5334" style="stop-color:#2D2A2E"/>
			<stop  offset="0.9949" style="stop-color:#100F0F"/>
		</linearGradient>
		<polygon class="st28" points="245.8,108 152.1,153.7 205.1,147.2 		"/>
		<linearGradient id="SVGID_31_" gradientUnits="userSpaceOnUse" x1="209.1555" y1="126.3704" x2="191.9973" y2="164.6084">
			<stop  offset="0" style="stop-color:#242220"/>
			<stop  offset="0.2875" style="stop-color:#1B1A19"/>
			<stop  offset="0.3242" style="stop-color:#1A1917"/>
			<stop  offset="0.9949" style="stop-color:#000000"/>
		</linearGradient>
		<polygon class="st29" points="228.5,183 205.1,147.2 152.1,153.7 		"/>
	</g>
	<g class="st20">
		<linearGradient id="SVGID_32_" gradientUnits="userSpaceOnUse" x1="4.1639" y1="140.9244" x2="-1.317" y2="115.7123">
			<stop  offset="0" style="stop-color:#E4E9EC"/>
			<stop  offset="0.2116" style="stop-color:#DADCE1"/>
			<stop  offset="0.4987" style="stop-color:#C6C2C9"/>
			<stop  offset="1" style="stop-color:#B5B8BB"/>
		</linearGradient>
		<polygon class="st30" points="-42.7,128.9 42.8,114.8 -2.9,152.6 		"/>
		<linearGradient id="SVGID_33_" gradientUnits="userSpaceOnUse" x1="-2.5769" y1="143.1905" x2="24.5192" y2="160.1256">
			<stop  offset="0" style="stop-color:#FFFFFF"/>
			<stop  offset="0.685" style="stop-color:#F3F2F9"/>
			<stop  offset="1" style="stop-color:#C9C8C8"/>
		</linearGradient>
		<polygon class="st31" points="-2.9,152.6 42.8,114.8 -4,199 		"/>
	</g>
	<g class="st20">
		
			<linearGradient id="SVGID_34_" gradientUnits="userSpaceOnUse" x1="-308.5473" y1="67.8246" x2="-300.908" y2="96.1359" gradientTransform="matrix(0.9925 0.1225 -0.1225 0.9925 496.6168 -35.3109)">
			<stop  offset="0" style="stop-color:#242220"/>
			<stop  offset="0.2875" style="stop-color:#1B1A19"/>
			<stop  offset="0.3242" style="stop-color:#1A1917"/>
			<stop  offset="0.9949" style="stop-color:#000000"/>
		</linearGradient>
		<polygon class="st32" points="125,28.7 187.5,-1.1 245.8,6.7 		"/>
		<linearGradient id="SVGID_35_" gradientUnits="userSpaceOnUse" x1="177.7197" y1="10.4198" x2="137.5902" y2="-5.632">
			<stop  offset="0" style="stop-color:#222120"/>
			<stop  offset="0.1734" style="stop-color:#1D1D1C"/>
			<stop  offset="0.3242" style="stop-color:#171817"/>
			<stop  offset="0.9949" style="stop-color:#000000"/>
		</linearGradient>
		<polygon class="st33" points="125,28.7 163.5,-34.6 187.5,-1.1 		"/>
		
			<linearGradient id="SVGID_36_" gradientUnits="userSpaceOnUse" x1="-297.8155" y1="82.451" x2="-285.9616" y2="54.1048" gradientTransform="matrix(0.9925 0.1225 -0.1225 0.9925 496.6168 -35.3109)">
			<stop  offset="0" style="stop-color:#3F3B36"/>
			<stop  offset="0.4058" style="stop-color:#36332E"/>
			<stop  offset="0.5385" style="stop-color:#322F2B"/>
			<stop  offset="0.9949" style="stop-color:#100F0F"/>
		</linearGradient>
		<polygon class="st34" points="245.8,6.7 187.5,-1.1 163.5,-34.6 		"/>
	</g>
	<g class="st20">
		<linearGradient id="SVGID_37_" gradientUnits="userSpaceOnUse" x1="191.0848" y1="115.5406" x2="198.0703" y2="129.144">
			<stop  offset="0" style="stop-color:#DADEE2"/>
			<stop  offset="0.1705" style="stop-color:#D1D3D7"/>
			<stop  offset="0.4441" style="stop-color:#B9B6BC"/>
			<stop  offset="0.5038" style="stop-color:#B3B0B6"/>
			<stop  offset="0.9898" style="stop-color:#767777"/>
		</linearGradient>
		<polygon class="st35" points="245.8,108 188.1,124.5 152.1,153.7 		"/>
		<linearGradient id="SVGID_38_" gradientUnits="userSpaceOnUse" x1="185.4742" y1="114.3377" x2="142.3392" y2="117.4506">
			<stop  offset="0" style="stop-color:#E2E1E7"/>
			<stop  offset="0.2116" style="stop-color:#DAD9DF"/>
			<stop  offset="0.4987" style="stop-color:#C7C6CC"/>
			<stop  offset="1" style="stop-color:#8D8E8F"/>
		</linearGradient>
		<polygon class="st36" points="188.1,124.5 136.3,80.9 152.1,153.7 		"/>
		<linearGradient id="SVGID_39_" gradientUnits="userSpaceOnUse" x1="191.0737" y1="129.8941" x2="191.0737" y2="73.5402">
			<stop  offset="0" style="stop-color:#FFFFFF"/>
			<stop  offset="0.8712" style="stop-color:#FFFFFF"/>
			<stop  offset="1" style="stop-color:#C9C8C8"/>
		</linearGradient>
		<polygon class="st37" points="245.8,108 188.1,124.5 136.3,80.9 		"/>
	</g>
	<g class="st20">
		<linearGradient id="SVGID_40_" gradientUnits="userSpaceOnUse" x1="182.4397" y1="163.5733" x2="194.9403" y2="189.8002">
			<stop  offset="0" style="stop-color:#DADEE2"/>
			<stop  offset="0.1705" style="stop-color:#D2D6D9"/>
			<stop  offset="0.4441" style="stop-color:#BBBEC1"/>
			<stop  offset="0.5038" style="stop-color:#B5B8BB"/>
			<stop  offset="0.9949" style="stop-color:#88898A"/>
		</linearGradient>
		<polygon class="st38" points="228.5,183 171.4,178.4 160,193.6 		"/>
		<linearGradient id="SVGID_41_" gradientUnits="userSpaceOnUse" x1="181.1166" y1="171.5715" x2="151.0179" y2="174.0797">
			<stop  offset="0" style="stop-color:#E2E1E7"/>
			<stop  offset="0.2116" style="stop-color:#DAD9DF"/>
			<stop  offset="0.4987" style="stop-color:#C7C6CC"/>
			<stop  offset="1" style="stop-color:#8D8E8F"/>
		</linearGradient>
		<polygon class="st39" points="171.4,178.4 152.1,153.7 160,193.6 		"/>
		<linearGradient id="SVGID_42_" gradientUnits="userSpaceOnUse" x1="183.766" y1="183.0486" x2="192.8349" y2="162.7042">
			<stop  offset="0" style="stop-color:#FFFFFF"/>
			<stop  offset="0.8712" style="stop-color:#FFFFFF"/>
			<stop  offset="1" style="stop-color:#C9C8C8"/>
		</linearGradient>
		<polygon class="st40" points="228.5,183 171.4,178.4 152.1,153.7 		"/>
	</g>
	<g class="st20">
		
			<linearGradient id="SVGID_43_" gradientUnits="userSpaceOnUse" x1="78.5535" y1="52.5109" x2="87.9443" y2="16.7736" gradientTransform="matrix(1 1.300000e-03 -1.300000e-03 1 4.6695 -0.3833)">
			<stop  offset="0" style="stop-color:#FFFFFF"/>
			<stop  offset="0.8712" style="stop-color:#FFFFFF"/>
			<stop  offset="1" style="stop-color:#C9C8C8"/>
		</linearGradient>
		<polygon class="st41" points="54,27.8 125,28.7 69.7,44.4 		"/>
		<linearGradient id="SVGID_44_" gradientUnits="userSpaceOnUse" x1="64.8338" y1="72.5955" x2="39.2508" y2="70.589">
			<stop  offset="0" style="stop-color:#E2E1E7"/>
			<stop  offset="0.2116" style="stop-color:#DAD9DF"/>
			<stop  offset="0.4987" style="stop-color:#C7C6CC"/>
			<stop  offset="1" style="stop-color:#8D8E8F"/>
		</linearGradient>
		<polygon class="st42" points="54,27.8 69.7,44.4 42.8,114.8 		"/>
		
			<linearGradient id="SVGID_45_" gradientUnits="userSpaceOnUse" x1="40.1852" y1="31.6307" x2="77.6113" y2="70.284" gradientTransform="matrix(1 1.300000e-03 -1.300000e-03 1 4.6695 -0.3833)">
			<stop  offset="0" style="stop-color:#DADEE2"/>
			<stop  offset="0.1705" style="stop-color:#D1D3D7"/>
			<stop  offset="0.4441" style="stop-color:#B9B6BC"/>
			<stop  offset="0.5038" style="stop-color:#B3B0B6"/>
			<stop  offset="0.9949" style="stop-color:#6E6F6E"/>
		</linearGradient>
		<polygon class="st43" points="69.7,44.4 125,28.7 42.8,114.8 		"/>
	</g>
	<g class="st20">
		
			<linearGradient id="SVGID_46_" gradientUnits="userSpaceOnUse" x1="3984.4702" y1="2536.7341" x2="3986.7761" y2="2558.804" gradientTransform="matrix(0.2461 -0.9692 0.9692 0.2461 -3403.5791 3232.1443)">
			<stop  offset="0" style="stop-color:#333034"/>
			<stop  offset="0.2499" style="stop-color:#312E32"/>
			<stop  offset="0.5334" style="stop-color:#2D2A2E"/>
			<stop  offset="0.9949" style="stop-color:#100F0F"/>
		</linearGradient>
		<polygon class="st44" points="54,27.8 42.6,-0.4 61,-32.1 		"/>
		
			<linearGradient id="SVGID_47_" gradientUnits="userSpaceOnUse" x1="3999.4927" y1="2529.6421" x2="3963.4932" y2="2522.2075" gradientTransform="matrix(0.2461 -0.9692 0.9692 0.2461 -3403.5791 3232.1443)">
			<stop  offset="0" style="stop-color:#242220"/>
			<stop  offset="0.2875" style="stop-color:#1B1A19"/>
			<stop  offset="0.3242" style="stop-color:#1A1917"/>
			<stop  offset="0.9949" style="stop-color:#000000"/>
		</linearGradient>
		<polygon class="st45" points="54,27.8 -18.9,-9.7 42.6,-0.4 		"/>
		<linearGradient id="SVGID_48_" gradientUnits="userSpaceOnUse" x1="32.4415" y1="9.561" x2="18.396" y2="-28.0609">
			<stop  offset="0" style="stop-color:#242220"/>
			<stop  offset="0.2875" style="stop-color:#1B1A19"/>
			<stop  offset="0.3242" style="stop-color:#1A1917"/>
			<stop  offset="0.9949" style="stop-color:#000000"/>
		</linearGradient>
		<polygon class="st46" points="61,-32.1 42.6,-0.4 -18.9,-9.7 		"/>
	</g>
	<g class="st20">
		<g>
			<linearGradient id="SVGID_49_" gradientUnits="userSpaceOnUse" x1="166.3866" y1="44.5461" x2="122.7449" y2="57.0867">
				<stop  offset="0" style="stop-color:#E2E1E7"/>
				<stop  offset="0.2116" style="stop-color:#DAD9DF"/>
				<stop  offset="0.4987" style="stop-color:#C7C6CC"/>
				<stop  offset="1" style="stop-color:#8D8E8F"/>
			</linearGradient>
			<polygon class="st47" points="136.3,80.9 165.8,40.1 125,28.7 			"/>
			
				<linearGradient id="SVGID_50_" gradientUnits="userSpaceOnUse" x1="4895.9551" y1="3471.4961" x2="4853.9702" y2="3551.5054" gradientTransform="matrix(-2.530000e-02 -0.9997 0.9997 -2.530000e-02 -3215.8252 4996.3799)">
				<stop  offset="0" style="stop-color:#DADEE2"/>
				<stop  offset="0.1705" style="stop-color:#D1D3D7"/>
				<stop  offset="0.4441" style="stop-color:#B9B6BC"/>
				<stop  offset="0.5038" style="stop-color:#B3B0B6"/>
				<stop  offset="0.9949" style="stop-color:#88898A"/>
			</linearGradient>
			<polygon class="st48" points="136.3,80.9 165.8,40.1 245.8,6.7 			"/>
		</g>
		
			<linearGradient id="SVGID_51_" gradientUnits="userSpaceOnUse" x1="4872.9009" y1="3526.6287" x2="4895.2012" y2="3525.8855" gradientTransform="matrix(-2.530000e-02 -0.9997 0.9997 -2.530000e-02 -3215.8252 4996.3799)">
			<stop  offset="0" style="stop-color:#FFFFFF"/>
			<stop  offset="0.8712" style="stop-color:#FFFFFF"/>
			<stop  offset="1" style="stop-color:#C9C8C8"/>
		</linearGradient>
		<polygon class="st49" points="165.8,40.1 125,28.7 245.8,6.7 		"/>
	</g>
	<path class="st50" d="M101.7,91.4c0,0-3.7,1.5-9.2,3.7c-2.8,1.1-6,2.4-9.4,3.8c-3.5,1.4-7.1,2.9-10.8,4.3
		c-3.7,1.5-7.4,2.9-10.8,4.3c-3.5,1.4-6.7,2.6-9.5,3.7c-5.5,2.2-9.2,3.6-9.2,3.6s3.7-1.5,9.2-3.7c2.8-1.1,6-2.4,9.4-3.8
		c3.5-1.4,7.1-2.9,10.8-4.3c3.7-1.5,7.4-2.9,10.8-4.3c3.5-1.4,6.7-2.6,9.5-3.7C98,92.8,101.7,91.4,101.7,91.4z"/>
	<path class="st51" d="M69.7,44.4c0,0-0.4,1.1-1.1,3c-0.7,1.9-1.8,4.7-3,8C63,62,59.7,70.8,56.3,79.7c-3.4,8.8-6.8,17.6-9.3,24.2
		c-1.3,3.3-2.3,6-3.1,8c-0.7,1.9-1.2,3-1.2,3s0.4-1.1,1.1-3c0.7-1.9,1.8-4.7,3-8c2.5-6.6,5.8-15.4,9.2-24.2
		c3.4-8.8,6.8-17.6,9.3-24.2c1.3-3.3,2.3-6,3.1-8C69.2,45.5,69.7,44.4,69.7,44.4z"/>
	<path class="st52" d="M165.8,40.1c0,0-1.8,2.6-4.5,6.4c-1.4,1.9-3,4.2-4.7,6.6c-1.7,2.4-3.6,4.9-5.4,7.5c-1.8,2.5-3.7,5.1-5.4,7.5
		c-1.7,2.4-3.4,4.6-4.8,6.5c-2.8,3.8-4.7,6.3-4.7,6.3s1.8-2.6,4.5-6.4c1.4-1.9,3-4.2,4.7-6.6c1.7-2.4,3.6-4.9,5.4-7.5
		c1.8-2.5,3.7-5.1,5.4-7.5c1.7-2.4,3.4-4.6,4.8-6.5C163.9,42.6,165.8,40.1,165.8,40.1z"/>
	<path class="st53" d="M188.1,124.5c0,0-2.2,1.9-5.6,4.6c-1.7,1.4-3.6,3-5.7,4.7c-2.1,1.7-4.4,3.6-6.6,5.4c-2.3,1.8-4.5,3.6-6.6,5.4
		c-2.1,1.7-4.1,3.3-5.8,4.7c-3.4,2.7-5.7,4.5-5.7,4.5s2.2-1.9,5.6-4.6c1.7-1.4,3.6-3,5.7-4.7c2.1-1.7,4.4-3.6,6.6-5.4
		c2.3-1.8,4.5-3.6,6.6-5.4c2.1-1.7,4.1-3.3,5.8-4.7C185.8,126.3,188.1,124.5,188.1,124.5z"/>
	<path class="st50" d="M125,28.7c0,0-0.4,1-1,2.7c-0.6,1.7-1.5,4.2-2.6,7.1c-2.2,5.9-5.1,13.7-8,21.5c-2.9,7.8-5.9,15.6-8.1,21.5
		c-1.1,2.9-2,5.4-2.7,7.1c-0.7,1.7-1,2.7-1,2.7s0.4-1,1-2.7c0.6-1.7,1.5-4.2,2.6-7.1c2.2-5.9,5.1-13.7,8-21.5
		c2.9-7.8,5.9-15.6,8.1-21.5c1.1-2.9,2-5.4,2.7-7.1C124.6,29.7,125,28.7,125,28.7z"/>
	<path class="st50" d="M187.5-1.1c0,0-1,0.5-2.7,1.3c-1.7,0.8-4.1,2-7.1,3.4c-5.9,2.8-13.7,6.6-21.5,10.3
		c-7.8,3.7-15.6,7.4-21.5,10.2c-2.9,1.4-5.4,2.5-7.1,3.3c-1.7,0.8-2.7,1.3-2.7,1.3s1-0.5,2.7-1.3c1.7-0.8,4.1-2,7.1-3.4
		c5.9-2.8,13.7-6.6,21.5-10.3c7.8-3.7,15.6-7.4,21.5-10.2c2.9-1.4,5.4-2.5,7.1-3.3C186.6-0.7,187.5-1.1,187.5-1.1z"/>
	<path class="st50" d="M205.1,147.2c0,0-3.3,0.4-8.3,1.1c-2.5,0.3-5.4,0.7-8.5,1.1c-3.1,0.4-6.4,0.8-9.7,1.2
		c-3.3,0.4-6.6,0.8-9.7,1.2c-3.1,0.4-6,0.7-8.5,1c-5,0.6-8.3,1-8.3,1s3.3-0.4,8.3-1.1c2.5-0.3,5.4-0.7,8.5-1.1
		c3.1-0.4,6.4-0.8,9.7-1.2c3.3-0.4,6.6-0.8,9.7-1.2c3.1-0.4,6-0.7,8.5-1C201.8,147.5,205.1,147.2,205.1,147.2z"/>
	<path class="st50" d="M245.8,108c0,0-2.5,2.5-6.3,6.2c-1.9,1.8-4.1,4-6.5,6.3c-2.4,2.3-4.9,4.7-7.5,7.2c-2.5,2.4-5.1,4.9-7.5,7.2
		c-2.4,2.3-4.6,4.4-6.6,6.2c-3.8,3.6-6.4,6.1-6.4,6.1s2.5-2.5,6.3-6.2c1.9-1.8,4.1-4,6.5-6.3c2.4-2.3,4.9-4.7,7.5-7.2
		c2.5-2.4,5.1-4.9,7.5-7.2c2.4-2.3,4.6-4.4,6.6-6.2C243.3,110.4,245.8,108,245.8,108z"/>
	<path class="st50" d="M245.8,6.7c0,0-3.6-0.5-9.1-1.1c-2.7-0.4-5.9-0.8-9.3-1.2c-3.4-0.5-7.1-0.9-10.7-1.4c-3.6-0.5-7.3-1-10.7-1.5
		c-3.4-0.5-6.6-0.9-9.3-1.3c-5.5-0.8-9.1-1.3-9.1-1.3s3.6,0.5,9.1,1.1c2.7,0.4,5.9,0.8,9.3,1.2c3.4,0.5,7.1,0.9,10.7,1.4
		c3.6,0.5,7.3,1,10.7,1.5c3.4,0.5,6.6,0.9,9.3,1.3C242.2,6.2,245.8,6.7,245.8,6.7z"/>
	<path class="st50" d="M152.1,153.7c0,0-3.2-3.9-7.9-9.7c-4.7-5.8-11.1-13.6-17.4-21.4c-6.3-7.8-12.6-15.6-17.3-21.5
		c-4.7-5.9-7.8-9.8-7.8-9.8s3.2,3.9,7.9,9.7c4.7,5.8,11.1,13.6,17.4,21.4c6.3,7.8,12.6,15.6,17.3,21.5
		C149,149.8,152.1,153.7,152.1,153.7z"/>
	<path class="st50" d="M228.5,183c0,0-1.5-2.2-3.7-5.6c-1.1-1.7-2.4-3.6-3.8-5.7c-1.4-2.1-2.8-4.3-4.3-6.6c-1.5-2.2-2.9-4.5-4.3-6.6
		c-1.4-2.1-2.6-4.1-3.7-5.8c-2.2-3.4-3.6-5.6-3.6-5.6s1.5,2.2,3.7,5.6c1.1,1.7,2.4,3.6,3.8,5.7c1.4,2.1,2.8,4.3,4.3,6.6
		c1.5,2.2,2.9,4.5,4.3,6.6c1.4,2.1,2.6,4.1,3.7,5.8C227.1,180.8,228.5,183,228.5,183z"/>
	<path class="st50" d="M54,27.8c0,0-0.2-0.4-0.5-1.2c-0.3-0.8-0.8-1.9-1.3-3.2c-0.5-1.3-1.2-2.9-1.9-4.5c-0.7-1.7-1.4-3.4-2.1-5.2
		c-0.7-1.8-1.4-3.5-2.1-5.2c-0.7-1.7-1.3-3.2-1.8-4.5c-0.5-1.3-0.9-2.4-1.2-3.2c-0.3-0.8-0.5-1.2-0.5-1.2s0.2,0.4,0.5,1.2
		c0.3,0.8,0.8,1.9,1.3,3.2c0.5,1.3,1.2,2.9,1.9,4.5c0.7,1.7,1.4,3.4,2.1,5.2c0.7,1.8,1.4,3.5,2.1,5.2c0.7,1.7,1.3,3.2,1.8,4.5
		c0.5,1.3,0.9,2.4,1.2,3.2C53.8,27.4,54,27.8,54,27.8z"/>
	<path class="st50" d="M42.8,114.8c0,0-3.9-0.9-9.6-2.3c-2.9-0.7-6.3-1.5-9.9-2.4c-3.6-0.9-7.5-1.9-11.3-2.8
		c-3.8-1-7.7-1.9-11.3-2.9c-3.6-0.9-7-1.8-9.9-2.5c-5.8-1.5-9.6-2.5-9.6-2.5s3.9,0.9,9.6,2.3c2.9,0.7,6.3,1.5,9.9,2.4
		c3.6,0.9,7.5,1.9,11.3,2.8c3.8,1,7.7,1.9,11.3,2.9c3.6,0.9,7,1.8,9.9,2.5C38.9,113.8,42.8,114.8,42.8,114.8z"/>
</g>
</svg>
